<?xml version="1.0" encoding="UTF-8" standalone="no"?>
<!-- Created with Inkscape (http://www.inkscape.org/) -->

<svg
   width="63.5mm"
   height="63.5mm"
   viewBox="0 0 63.5 63.5"
   version="1.1"
   id="svg5"
   xml:space="preserve"
   inkscape:version="1.2.2 (732a01da63, 2022-12-09)"
   sodipodi:docname="logo.svg"
   xmlns:inkscape="http://www.inkscape.org/namespaces/inkscape"
   xmlns:sodipodi="http://sodipodi.sourceforge.net/DTD/sodipodi-0.dtd"
   xmlns="http://www.w3.org/2000/svg"
   xmlns:svg="http://www.w3.org/2000/svg"><sodipodi:namedview
     id="namedview7"
     pagecolor="#ffffff"
     bordercolor="#000000"
     borderopacity="0.25"
     inkscape:showpageshadow="2"
     inkscape:pageopacity="0.0"
     inkscape:pagecheckerboard="0"
     inkscape:deskcolor="#d1d1d1"
     inkscape:document-units="mm"
     showgrid="false"
     inkscape:zoom="0.35355339"
     inkscape:cx="469.5189"
     inkscape:cy="255.97265"
     inkscape:window-width="1920"
     inkscape:window-height="991"
     inkscape:window-x="-9"
     inkscape:window-y="-9"
     inkscape:window-maximized="1"
     inkscape:current-layer="layer1" /><defs
     id="defs2"><linearGradient
       id="linear-gradient"
       x1="120"
       y1="240"
       x2="120"
       gradientUnits="userSpaceOnUse"><stop
         offset="0"
         stop-color="#1d93d2"
         id="stop5455" /><stop
         offset="1"
         stop-color="#38b0e3"
         id="stop5457" /></linearGradient></defs><g
     inkscape:label="Layer 1"
     inkscape:groupmode="layer"
     id="layer1"><g
       id="g5482"
       transform="scale(0.26458333)"><circle
         cx="120"
         cy="120"
         r="120"
         fill="url(#linear-gradient)"
         id="circle5464"
         style="fill:url(#linear-gradient)" /></g><g
       id="g7172"
       transform="matrix(0.19757706,0,0,0.16826061,9.7945148,12.063097)"
       style="fill:#ffffff;fill-opacity:1"><path
         d="M 108.881,5.334 C 48.844,5.334 0,45.339 0,94.512 c 0,28.976 16.84,55.715 45.332,72.454 -3.953,18.48 -12.812,31.448 -12.909,31.588 l -9.685,13.873 16.798,-2.153 c 1.935,-0.249 47.001,-6.222 79.122,-26.942 26.378,-1.92 50.877,-11.597 69.181,-27.364 19.296,-16.623 29.923,-38.448 29.923,-61.455 0,-49.174 -48.844,-89.179 -108.881,-89.179 z m 6.881,163.155 -2.049,0.117 -1.704,1.145 c -18.679,12.548 -43.685,19.509 -59.416,22.913 3.3,-7.377 6.768,-17.184 8.499,-28.506 l 0.809,-5.292 -4.741,-2.485 C 30.761,142.547 15,119.42 15,94.512 15,53.611 57.115,20.334 108.881,20.334 c 51.766,0 93.881,33.276 93.881,74.178 0,38.682 -38.215,71.176 -87,73.977 z"
         id="path7119"
         style="fill:#ffffff;fill-opacity:1" /><g
         id="g7121"
         style="fill:#ffffff;fill-opacity:1">
</g><g
         id="g7123"
         style="fill:#ffffff;fill-opacity:1">
</g><g
         id="g7125"
         style="fill:#ffffff;fill-opacity:1">
</g><g
         id="g7127"
         style="fill:#ffffff;fill-opacity:1">
</g><g
         id="g7129"
         style="fill:#ffffff;fill-opacity:1">
</g><g
         id="g7131"
         style="fill:#ffffff;fill-opacity:1">
</g><g
         id="g7133"
         style="fill:#ffffff;fill-opacity:1">
</g><g
         id="g7135"
         style="fill:#ffffff;fill-opacity:1">
</g><g
         id="g7137"
         style="fill:#ffffff;fill-opacity:1">
</g><g
         id="g7139"
         style="fill:#ffffff;fill-opacity:1">
</g><g
         id="g7141"
         style="fill:#ffffff;fill-opacity:1">
</g><g
         id="g7143"
         style="fill:#ffffff;fill-opacity:1">
</g><g
         id="g7145"
         style="fill:#ffffff;fill-opacity:1">
</g><g
         id="g7147"
         style="fill:#ffffff;fill-opacity:1">
</g><g
         id="g7149"
         style="fill:#ffffff;fill-opacity:1">
</g></g><path
       style="fill:#ffffff;fill-opacity:1;stroke:#ffffff;stroke-width:0.349042;stroke-opacity:1"
       d="m 50.466914,116.90345 c -2.038826,-5.63457 -2.55673,-10.85337 -1.612256,-16.24632 0.901331,-5.146598 2.621966,-9.401809 5.664029,-14.007406 l 1.556194,-2.356035 h 62.250419 62.25042 l 1.55674,2.356035 c 6.47515,9.799789 7.79218,20.194626 3.89169,30.715716 l -0.93815,2.53055 H 118.31787 51.549743 Z"
       id="path11664"
       transform="scale(0.26458333)" /><path
       style="fill:#ffffff;fill-opacity:1;stroke:#ffffff;stroke-width:0.349042;stroke-opacity:1"
       d="m 83.246563,147.33655 c 0,-0.72558 -0.657723,-1.15201 -5.148373,-3.33786 -11.934324,-5.80913 -19.988326,-12.82379 -25.369523,-22.0957 l -0.962235,-1.65796 h 66.532768 66.53276 l -1.03675,1.83248 c -3.08029,5.44441 -9.00447,11.76836 -14.95924,15.96868 -4.22112,2.97745 -10.34818,6.21085 -15.87229,8.3762 l -4.45434,1.74602 H 115.87795 83.246563 Z"
       id="path11666"
       transform="scale(0.26458333)" /><path
       style="fill:#ffffff;fill-opacity:1;stroke:#ffffff;stroke-width:0.349042;stroke-opacity:1"
       d="m 76.963803,167.49909 c 0,-0.11862 0.608941,-1.57151 1.353203,-3.22864 1.811699,-4.03382 3.430361,-8.97689 4.158003,-12.69771 l 0.597032,-3.05295 31.733759,-0.001 c 17.45356,-6.4e-4 31.66777,0.0648 31.58713,0.14545 -0.0806,0.0806 -1.7276,0.54737 -3.65991,1.03719 -4.56865,1.15809 -10.93097,2.18653 -16.48045,2.66398 l -4.43685,0.38172 -4.71206,2.38302 c -9.71432,4.91281 -22.245732,9.03076 -36.250962,11.91245 -3.586978,0.73805 -3.888895,0.7735 -3.888895,0.45666 z"
       id="path11668"
       transform="scale(0.26458333)" /><path
       style="fill:#ffffff;fill-opacity:1;stroke:#ffffff;stroke-width:0.349042;stroke-opacity:1"
       d="m 58.192485,81.763133 c 8.521487,-9.719794 23.691746,-17.716445 39.88472,-21.024308 11.179095,-2.28364 25.404615,-2.542224 36.827605,-0.669434 17.7841,2.915691 34.30464,11.144508 43.55331,21.693742 l 1.91257,2.181514 H 118.3253 56.27992 Z"
       id="path11670"
       transform="scale(0.26458333)" /><path
       style="fill:#ffffff;fill-opacity:1;stroke:#ffffff;stroke-width:0.349042;stroke-opacity:1"
       d="m 58.21838,175.83 c 5.825331,-7.12726 8.984223,-12.50209 11.333937,-19.28458 1.775388,-5.12468 1.873094,-4.62178 -1.226857,-6.31481 C 61.217389,146.34856 53.898632,140.67879 49.497766,135.64498 37.656237,122.10035 34.312962,106.9095 39.809326,91.623575 46.618564,72.686421 68.315513,57.044045 95.463039,51.500134 105.21795,49.508042 115.76201,48.745978 124.9571,49.36847 c 15.56123,1.053469 28.02807,4.255598 40.29512,10.349871 15.70275,7.801129 27.03887,19.250714 31.58906,31.905234 3.22304,8.963585 3.40952,17.694835 0.56742,26.567285 -7.19883,22.47328 -34.12974,39.94531 -66.86692,43.38141 -4.8239,0.50631 -4.94257,0.53968 -9.24962,2.60104 -15.28041,7.31323 -35.640669,12.7356 -57.127658,15.21431 -4.256004,0.49097 -8.153379,0.89267 -8.660833,0.89267 -0.855551,0 -0.658144,-0.32361 2.714711,-4.45029 z m 32.53259,-10.75084 c 9.87873,-2.4882 20.70749,-6.45763 27.64938,-10.13527 1.96101,-1.03889 3.95437,-1.88889 4.42969,-1.88889 0.47532,0 0.97473,-0.17881 1.10979,-0.39735 0.49501,-0.80094 -2.41969,0.1027 -5.7955,1.79676 -5.23411,2.6266 -11.44324,5.1401 -18.31575,7.41435 -3.4569,1.14396 -6.677945,2.1473 -7.157878,2.22965 -0.479933,0.0823 -1.657951,0.37187 -2.617817,0.64338 -2.041422,0.57744 -7.564313,1.8737 -9.075097,2.12998 -0.575919,0.0977 -1.456486,0.3113 -1.956814,0.47467 -1.721699,0.56218 -1.8571,-0.0209 -0.652866,-2.81151 1.45953,-3.3822 3.153191,-8.33859 2.849329,-8.33838 -0.131805,1e-4 -0.684433,1.29591 -1.228059,2.8796 -0.543623,1.58368 -1.603839,4.19699 -2.356035,5.80734 -0.752193,1.61035 -1.367624,3.04679 -1.367624,3.19209 0,0.31148 7.565622,-1.25355 14.485251,-2.99642 z m -8.816132,-10.44831 c 0.09229,-0.48277 0.03251,-0.87776 -0.132846,-0.87776 -0.165352,0 -0.30064,0.22275 -0.30064,0.49501 0,0.27226 -0.105226,0.76923 -0.233838,1.10439 -0.147191,0.38357 -0.09797,0.52539 0.132846,0.38274 0.201673,-0.12464 0.442187,-0.62161 0.534478,-1.10438 z m 0.8302,-3.82793 c 0.144461,-0.96905 0.227823,-1.89635 0.185247,-2.06066 -0.08033,-0.31002 37.402065,-0.2678 53.001645,0.0597 8.31429,0.17455 8.78562,0.21816 7.15537,0.66218 -0.95987,0.26144 -2.13789,0.55128 -2.61782,0.64409 -0.47993,0.0928 -1.34381,0.27263 -1.91973,0.39958 -1.82048,0.4013 -2.06329,0.44512 -3.49042,0.62989 -0.76789,0.0994 -2.57419,0.35112 -4.01399,0.55932 -1.4398,0.20821 -3.47974,0.45299 -4.5332,0.54397 -1.05346,0.091 -1.99588,0.25417 -2.09425,0.36264 -0.34746,0.38311 6.50832,-0.29516 11.33577,-1.1215 24.04649,-4.11615 43.41922,-16.83467 50.10507,-32.89482 2.0134,-4.8364 2.5272,-7.44287 2.52865,-12.82752 0.001,-4.13283 -0.13615,-5.4045 -0.88986,-8.244233 C 185.67696,90.580892 181.9354,84.55974 175.7756,78.619723 165.34422,68.56054 150.59935,62.002235 132.28699,59.27662 c -5.96466,-0.887781 -21.9643,-0.887303 -27.92337,8.37e-4 -18.276636,2.723938 -33.085665,9.310495 -43.488617,19.342266 -8.206464,7.913655 -12.200495,16.061095 -12.775696,26.061197 -0.168999,2.93811 -0.122402,3.74801 0.204031,3.54627 0.27708,-0.17125 0.403191,-1.12377 0.365496,-2.7606 -0.130501,-5.666768 1.589576,-11.332641 5.341654,-17.595218 l 2.143486,-3.577683 62.150416,0.0031 62.15042,0.0031 1.26629,2.003942 c 2.57806,4.079846 2.99163,4.932594 5.03466,10.380951 0.89565,2.38852 1.26429,4.983738 1.26429,8.900578 0,4.38233 -0.32102,6.01778 -2.55215,13.00182 l -0.41814,1.30891 h -66.7088 -66.708788 l -1.183091,-3.57768 c -0.6507,-1.96773 -1.222668,-3.81329 -1.271042,-4.10125 -0.04837,-0.28796 -0.183073,-1.14416 -0.299331,-1.90267 -0.332325,-2.16821 -0.658264,-1.98373 -0.408841,0.2314 0.322543,2.86453 1.801276,7.31804 3.568196,10.74637 3.952486,7.66895 10.678216,14.39044 19.89074,19.8782 3.750996,2.2344 10.271659,5.39637 10.269087,4.97962 -6.98e-4,-0.13769 -1.767875,-1.14492 -3.926725,-2.23829 -12.081057,-6.11873 -18.951959,-11.971 -24.815019,-21.13628 l -1.618804,-2.53056 h 66.485918 66.48591 l -1.27108,2.007 c -6.99714,11.04826 -16.53424,18.37148 -31.97353,24.55138 l -3.41018,1.365 h -32.42831 c -30.600596,0 -32.435839,-0.0344 -32.561735,-0.61082 -0.115878,-0.53055 -0.419203,0.74793 -1.180063,4.97385 -0.138657,0.77013 -0.09507,0.91304 0.16479,0.54025 0.194326,-0.27877 0.471514,-1.29972 0.615976,-2.26877 z"
       id="path11672"
       transform="scale(0.26458333)" /><path
       style="fill:#ffffff;fill-opacity:1;stroke:#ffffff;stroke-width:0.349042;stroke-opacity:1"
       d="m 55.045156,179.66947 c 2.145218,-2.48056 7.701103,-9.75136 8.8798,-11.6207 2.189314,-3.47211 4.128761,-7.51321 5.509275,-11.47933 1.462078,-4.20044 1.508161,-4.7366 0.461468,-5.36904 -0.43194,-0.261 -2.309147,-1.36677 -4.171571,-2.45728 -7.671782,-4.49207 -15.601743,-11.48714 -19.940557,-17.58968 -3.753151,-5.27882 -6.643735,-11.83231 -7.96748,-18.06377 -0.601049,-2.82941 -0.591838,-11.59421 0.01541,-14.659772 2.115676,-10.680597 8.319398,-20.593176 17.943502,-28.67091 19.5507,-16.409359 49.737187,-23.728797 79.689517,-19.322635 29.89069,4.397094 54.83389,21.347456 61.71947,41.94198 1.69927,5.082477 2.06602,7.442854 2.07916,13.381447 0.0109,4.90926 -0.0998,6.03265 -0.91538,9.28873 -3.62815,14.48562 -14.44368,26.93252 -31.03119,35.7118 -11.09339,5.87141 -23.3876,9.43072 -38.10378,11.03148 -3.23178,0.35154 -4.18197,0.61152 -6.6318,1.81454 -13.35992,6.5606 -30.14602,11.54059 -49.107615,14.56894 -4.841795,0.77328 -16.13726,2.10502 -17.854194,2.10502 -1.018331,0 -1.062048,-0.0465 -0.574031,-0.61082 z m 22.648145,-12.09136 c -0.307377,-0.37037 -0.27975,-0.84374 0.116326,-1.99337 0.766158,-2.22379 0.447737,-2.01568 -0.587718,0.3841 l -0.903935,2.09497 h 0.889216 c 0.720039,0 0.812525,-0.0924 0.486111,-0.4857 z m 3.713519,-0.42326 c -0.115986,-0.11598 -0.417035,-0.12838 -0.668998,-0.0275 -0.278442,0.11142 -0.195736,0.19413 0.210881,0.21088 0.367946,0.0152 0.574101,-0.0673 0.458117,-0.18333 z m 1.396169,-0.34904 c -0.115986,-0.11599 -0.417035,-0.12838 -0.668998,-0.0275 -0.278442,0.11142 -0.195736,0.19413 0.21088,0.21088 0.367947,0.0151 0.574101,-0.0674 0.458118,-0.18333 z m 1.745211,-0.34904 c -0.115987,-0.11599 -0.417035,-0.12839 -0.668998,-0.0275 -0.278442,0.11142 -0.195736,0.19413 0.21088,0.21087 0.367947,0.0152 0.574101,-0.0673 0.458118,-0.18332 z m 1.396169,-0.34905 c -0.115987,-0.11598 -0.417036,-0.12838 -0.668999,-0.0275 -0.278441,0.11143 -0.195736,0.19413 0.210881,0.21088 0.367946,0.0152 0.574101,-0.0673 0.458118,-0.18332 z m 3.14138,-0.69808 c -0.115987,-0.11598 -0.417036,-0.12838 -0.668999,-0.0275 -0.278441,0.11142 -0.195736,0.19413 0.210881,0.21088 0.367946,0.0151 0.574101,-0.0673 0.458118,-0.18333 z m 1.396168,-0.34904 c -0.115986,-0.11599 -0.417035,-0.12838 -0.668998,-0.0275 -0.278442,0.11142 -0.195736,0.19413 0.210881,0.21087 0.367946,0.0152 0.574101,-0.0673 0.458117,-0.18332 z m 2.014264,-0.48721 c 0.440016,-0.18908 0.504533,-0.29997 0.174521,-0.29997 -0.28796,0 -0.837702,0.13498 -1.221648,0.29997 -0.440017,0.18909 -0.504533,0.29998 -0.174521,0.29998 0.28796,0 0.837701,-0.13499 1.221648,-0.29998 z m 2.443295,-0.69808 c 0.440016,-0.18908 0.504533,-0.29998 0.174521,-0.29998 -0.28796,0 -0.837701,0.13499 -1.221648,0.29998 -0.440016,0.18908 -0.504533,0.29998 -0.174521,0.29998 0.28796,0 0.837702,-0.13499 1.221648,-0.29998 z m 4.537548,-1.36118 c 6.072756,-1.93276 11.222506,-3.96677 16.667436,-6.58316 3.02394,-1.45307 5.43572,-2.7043 5.35951,-2.78051 -0.0762,-0.0762 -1.68648,0.63229 -3.57835,1.57446 -4.17317,2.07826 -10.04846,4.4644 -17.05243,6.9255 -5.67528,1.99422 -6.445679,2.47081 -1.396166,0.86371 z m -20.080617,-0.9076 c 0,-0.19197 -0.152255,-0.11343 -0.338351,0.17453 -0.186095,0.28796 -0.338351,0.68063 -0.338351,0.8726 0,0.19197 0.152256,0.11344 0.338351,-0.17452 0.186096,-0.28796 0.338351,-0.68063 0.338351,-0.87261 z m 44.133363,-8.85015 c 0.10151,-0.16424 -0.20336,-0.22446 -0.67748,-0.13383 -0.47413,0.0906 -0.86204,0.22501 -0.86204,0.29862 0,0.27007 1.36079,0.12441 1.53952,-0.16479 z m 6.7543,-0.63928 c -0.33372,-0.0874 -0.96199,-0.0905 -1.39617,-0.007 -0.43418,0.0835 -0.16114,0.15496 0.60675,0.15884 0.7679,0.004 1.12313,-0.0644 0.78942,-0.1518 z m 2.62039,-0.33818 c -0.23632,-0.0956 -0.70752,-0.10142 -1.04713,-0.0129 -0.33961,0.0885 -0.14626,0.16673 0.42966,0.17384 0.57592,0.007 0.85378,-0.0653 0.61747,-0.1609 z m 2.44329,-0.34904 c -0.23631,-0.0956 -0.70752,-0.10143 -1.04712,-0.0129 -0.33961,0.0885 -0.14626,0.16673 0.42966,0.17384 0.57592,0.007 0.85377,-0.0653 0.61746,-0.16091 z m 1.73857,-0.35125 c -0.23997,-0.0968 -0.63264,-0.0968 -0.8726,0 -0.23997,0.0968 -0.0436,0.17605 0.4363,0.17605 0.47993,0 0.67627,-0.0792 0.4363,-0.17605 z m 1.91246,-0.32876 c -0.11598,-0.11599 -0.41703,-0.12838 -0.669,-0.0275 -0.27844,0.11142 -0.19573,0.19413 0.21088,0.21087 0.36795,0.0152 0.57411,-0.0673 0.45812,-0.18332 z m 1.57796,-0.36933 c -0.23996,-0.0968 -0.63264,-0.0968 -0.8726,0 -0.23997,0.0968 -0.0436,0.17606 0.4363,0.17606 0.47993,0 0.67627,-0.0792 0.4363,-0.17606 z m 1.56342,-0.32876 c -0.11598,-0.11598 -0.41703,-0.12838 -0.669,-0.0275 -0.27844,0.11142 -0.19573,0.19413 0.21088,0.21088 0.36795,0.0152 0.5741,-0.0673 0.45812,-0.18332 z m 1.39617,-0.34904 c -0.11598,-0.11598 -0.41704,-0.12838 -0.669,-0.0275 -0.27844,0.11142 -0.19573,0.19413 0.21088,0.21088 0.36795,0.0152 0.5741,-0.0673 0.45812,-0.18333 z m 2.32281,-0.54604 c 0.79017,-0.22434 1.58426,-0.53686 1.76466,-0.6945 0.1804,-0.15763 -14.30922,-0.32749 -32.19917,-0.37746 -17.889938,-0.05 -32.527152,0.0269 -32.527138,0.17093 1.8e-5,0.14398 11.191194,0.26226 24.869288,0.26285 25.58734,0.001 37.29133,0.24077 36.49278,0.74729 -0.63869,0.40512 -0.0766,0.36678 1.59958,-0.10911 z m 6.14873,-2.03542 c 0.28796,-0.18609 0.3665,-0.33835 0.17453,-0.33835 -0.19198,0 -0.58465,0.15226 -0.87261,0.33835 -0.28796,0.1861 -0.36649,0.33835 -0.17452,0.33835 0.19197,0 0.58464,-0.15225 0.8726,-0.33835 z m 3.15081,-1.25275 c 8.10773,-3.29446 15.89275,-8.40695 21.54289,-14.14739 2.83506,-2.88037 5.92616,-6.8074 6.97265,-8.85829 0.72513,-1.42107 0.48623,-1.1495 -1.81607,2.06446 -5.90151,8.23839 -12.64038,13.6562 -23.74204,19.08779 -3.07157,1.50279 -5.49395,2.73793 -5.38307,2.74475 0.11088,0.007 1.20242,-0.39428 2.42564,-0.89132 z m -77.496793,-2.10105 c -11.127539,-5.91165 -17.81339,-11.37751 -22.710736,-18.56663 -2.03104,-2.98149 -2.730766,-3.83221 -2.066577,-2.51252 0.749801,1.4898 3.478857,5.28269 5.356802,7.44499 2.157577,2.48427 6.896498,6.51492 10.590184,9.0074 2.679307,1.80798 11.478647,6.56924 12.146228,6.57224 0.191974,7e-4 -1.300182,-0.8746 -3.315901,-1.94548 z M 187.46985,113.78775 c 0.26459,-0.95986 0.4735,-2.05934 0.46422,-2.44329 -0.0152,-0.62839 -1.09094,2.8803 -1.55174,5.06111 l -0.18438,0.87261 0.39541,-0.87261 c 0.21747,-0.47993 0.61189,-1.65795 0.87649,-2.61782 z m -137.930791,0.0249 c -0.128384,-0.51153 -0.300742,-0.86274 -0.383016,-0.78046 -0.08227,0.0823 -0.04455,0.56811 0.08384,1.07963 0.128384,0.51153 0.300742,0.86273 0.383016,0.78046 0.08227,-0.0823 0.04455,-0.56811 -0.08384,-1.07963 z m -0.616509,-2.38096 c -0.09683,-0.23997 -0.176052,-0.0436 -0.176052,0.4363 0,0.47994 0.07922,0.67627 0.176052,0.4363 0.09683,-0.23996 0.09683,-0.63263 0,-0.8726 z m 139.27728,-2.61782 c -0.0878,-0.33595 -0.15963,-0.0611 -0.15963,0.61083 0,0.6719 0.0718,0.94677 0.15963,0.61082 0.0878,-0.33595 0.0878,-0.88569 0,-1.22165 z M 48.661508,105.23622 c 0.01389,-1.13651 -0.07434,-1.42596 -0.319165,-1.04713 -0.186093,0.28796 -0.329718,1.30891 -0.319164,2.26878 0.02452,2.23008 0.609847,1.10987 0.638329,-1.22165 z m -0.07856,-3.7522 c -0.08779,-0.33596 -0.159625,-0.0611 -0.159625,0.61082 0,0.67191 0.07183,0.94678 0.159625,0.61082 0.08779,-0.33595 0.08779,-0.88569 0,-1.22164 z m 139.616882,-0.34905 c -0.0878,-0.33595 -0.15963,-0.0611 -0.15963,0.61083 0,0.6719 0.0718,0.94678 0.15963,0.61082 0.0878,-0.33595 0.0878,-0.88569 0,-1.22165 z M 48.92255,99.215243 c -0.09683,-0.239967 -0.176052,-0.04363 -0.176052,0.436303 0,0.479934 0.07922,0.676264 0.176052,0.436304 0.09683,-0.239968 0.09683,-0.632641 0,-0.872607 z m 138.91879,0 c -0.0968,-0.239967 -0.17605,-0.04363 -0.17605,0.436303 0,0.479934 0.0792,0.676264 0.17605,0.436304 0.0968,-0.239968 0.0968,-0.632641 0,-0.872607 z M 49.278863,97.840889 c -0.111423,-0.278441 -0.194131,-0.195736 -0.210879,0.210881 -0.01516,0.367946 0.06734,0.574101 0.183324,0.458118 0.115983,-0.115987 0.128384,-0.417036 0.02756,-0.668999 z m 138.220707,0 c -0.11142,-0.278441 -0.19413,-0.195736 -0.21088,0.210881 -0.0152,0.367946 0.0673,0.574101 0.18333,0.458118 0.11598,-0.115987 0.12838,-0.417036 0.0275,-0.668999 z M 53.731934,88.109652 c 2.133688,-3.72762 2.130854,-3.722004 1.66081,-3.2924 -0.869811,0.794979 -3.961532,6.375982 -4.945304,8.926985 -1.503803,3.899492 -1.292919,4.254192 0.281605,0.473654 0.724962,-1.740688 2.076262,-4.489395 3.002889,-6.108239 z m 132.488846,5.68026 c -1.01162,-2.623219 -4.10634,-8.203877 -4.97574,-8.97266 -0.2171,-0.191973 -0.15665,0.04363 0.13434,0.523564 2.23959,3.693836 3.52077,6.183495 4.53222,8.807214 0.64626,1.676408 1.22221,2.909179 1.27989,2.739492 0.0577,-0.169687 -0.37914,-1.563611 -0.97071,-3.09761 z M 149.6795,84.031935 c -17.11839,-0.05007 -45.23374,-0.05007 -62.478551,-1e-5 -17.244809,0.05006 -3.23885,0.09103 31.124351,0.09103 34.36321,3e-6 48.47259,-0.04096 31.3542,-0.09102 z M 59.241283,80.965869 c 7.97587,-8.540483 20.972682,-15.598376 35.349151,-19.196287 4.322207,-1.081693 10.389986,-2.104653 14.504966,-2.445376 2.91202,-0.241117 17.35424,-0.207848 18.69169,0.04306 0.76894,0.144253 1.184,0.08614 1.184,-0.165768 0,-0.407937 -0.57085,-0.43694 -10.29675,-0.523139 -12.24771,-0.108549 -22.014002,1.413427 -32.596166,5.079778 -10.982878,3.805184 -22.492052,11.155158 -28.245208,18.037919 -2.229916,2.66775 -1.403306,2.180473 1.408317,-0.830187 z m 119.079647,0.330752 c -6.3284,-7.208149 -17.241,-14.018065 -28.47044,-17.766742 -4.52888,-1.511858 -12.94956,-3.656077 -14.39303,-3.665005 -1.34972,-0.0083 -0.20167,0.399783 2.92849,1.041088 15.90656,3.258915 31.14733,11.190291 39.47326,20.542083 1.04363,1.172227 2.0286,2.134975 2.18882,2.139441 0.16021,0.0045 -0.61699,-1.026424 -1.7271,-2.290865 z M 134.55576,59.860736 c 0,-0.191973 -0.51047,-0.338003 -1.13438,-0.32451 -0.95063,0.02056 -1.02131,0.07313 -0.43631,0.32451 0.9643,0.414374 1.57069,0.414374 1.57069,0 z m -2.44329,-0.349042 c 0,-0.191974 -0.66754,-0.330459 -1.48343,-0.307746 -1.39219,0.03876 -1.41903,0.05768 -0.4363,0.307746 1.53247,0.389947 1.91973,0.389947 1.91973,0 z"
       id="path11674"
       transform="scale(0.26458333)" /><path
       style="fill:#ffffff;fill-opacity:1;stroke:#ffffff;stroke-width:0.349042;stroke-opacity:1"
       d="m 144.93977,148.63533 c 0.23997,-0.0968 0.63264,-0.0968 0.87261,0 0.23996,0.0968 0.0436,0.17605 -0.43631,0.17605 -0.47993,0 -0.67627,-0.0792 -0.4363,-0.17605 z"
       id="path11676"
       transform="scale(0.26458333)" /><path
       style="fill:#ffffff;fill-opacity:1;stroke:#ffffff;stroke-width:0.349042;stroke-opacity:1"
       d="m 54.875594,179.84399 c 0.184782,-0.23997 1.521076,-1.92846 2.969541,-3.7522 4.307438,-5.42345 6.366356,-8.47733 8.401218,-12.46107 2.139104,-4.18781 4.545701,-10.72322 4.269348,-11.59393 -0.0983,-0.30972 -1.129169,-1.08564 -2.290813,-1.72426 -3.607099,-1.98301 -9.097055,-5.74208 -12.378137,-8.47552 C 33.018515,122.81899 30.925204,95.02681 50.767194,74.397451 63.642716,61.011005 82.307817,52.674746 106.10883,49.680623 c 5.24114,-0.659327 20.23587,-0.554061 25.82912,0.181325 28.04753,3.687617 50.72241,16.330775 61.43864,34.25722 4.83231,8.083657 6.96593,17.969222 5.78422,26.799732 -1.5067,11.25905 -8.08868,22.34318 -18.35696,30.91331 -12.53418,10.4613 -30.93634,17.80483 -49.56399,19.77892 -4.40775,0.46711 -6.17591,0.94527 -9.83462,2.65953 -16.1036,7.54524 -35.389338,12.64483 -57.879561,15.3047 -7.062713,0.8353 -9.136017,0.89968 -8.650085,0.26863 z M 77.52471,167.5117 c -0.116527,-0.30366 -0.21427,-0.7356 -0.217209,-0.95986 -0.0071,-0.54396 -0.680461,0.50971 -0.687396,1.07567 -0.0028,0.23997 0.247062,0.4363 0.555563,0.4363 0.368072,0 0.488069,-0.1898 0.349042,-0.55211 z m 67.3623,-18.90158 c -0.14101,-0.14101 -5.15413,-0.28079 -11.14027,-0.31062 l -10.88389,-0.0543 10.73859,0.258 c 5.90622,0.14189 10.8408,0.3602 10.96574,0.48514 0.12493,0.12494 0.30569,0.14862 0.40168,0.0526 0.096,-0.096 0.0591,-0.28989 -0.0819,-0.4309 z m 2.40879,-0.17113 c 0.2327,-0.23269 0.0582,-0.26471 -0.52356,-0.0961 -0.47993,0.13914 -1.02967,0.41005 -1.22165,0.60203 -0.23269,0.23269 -0.0582,0.26471 0.52357,0.0961 0.47993,-0.13914 1.02967,-0.41006 1.22164,-0.60203 z m -29.93763,-0.13242 c -0.11599,-0.11598 -0.41704,-0.12838 -0.669,-0.0275 -0.27844,0.11142 -0.19574,0.19413 0.21088,0.21088 0.36794,0.0151 0.5741,-0.0673 0.45812,-0.18332 z m 43.04405,-4.85919 c 0.56639,-0.29289 1.02979,-0.61106 1.02979,-0.70705 0,-0.15633 -2.05502,0.78806 -2.41421,1.10944 -0.35292,0.3158 0.44293,0.0845 1.38442,-0.40239 z m 4.17117,-2.45226 c 0,-0.096 -0.4712,0.0692 -1.04712,0.36697 -0.57592,0.29782 -1.04713,0.62002 -1.04713,0.71601 0,0.096 0.47121,-0.0692 1.04713,-0.36697 0.57592,-0.29782 1.04712,-0.62003 1.04712,-0.71601 z m -92.84522,-0.31884 c 0,-0.0892 -0.353405,-0.3335 -0.785345,-0.54281 -0.754149,-0.36547 -0.758432,-0.35902 -0.107808,0.16223 0.712136,0.57054 0.893153,0.64768 0.893153,0.38058 z m -3.839464,-2.41284 c 0,-0.0725 -0.274871,-0.34734 -0.610824,-0.61082 -0.5536,-0.43416 -0.565946,-0.42182 -0.131782,0.13178 0.455978,0.58142 0.742606,0.76632 0.742606,0.47904 z m -4.886591,-3.80312 c 0,-0.0525 -1.295819,-1.34832 -2.879598,-2.8796 l -2.879598,-2.78415 2.784149,2.8796 c 2.585832,2.67448 2.975047,3.03872 2.975047,2.78415 z m 115.532965,-4.6893 c 0,-0.26209 -0.31338,0.015 -1.7598,1.5561 l -1.5561,1.65795 1.65795,-1.5561 c 0.91187,-0.85585 1.65795,-1.60193 1.65795,-1.65795 z m 2.09809,-2.54999 c 0.60607,-0.76522 1.02914,-1.39132 0.94014,-1.39132 -0.089,0 -0.76715,0.73876 -1.50704,1.64168 -0.73988,0.90294 -1.16295,1.52903 -0.94014,1.39133 0.2228,-0.1377 0.90097,-0.87646 1.50704,-1.64169 z m -123.564772,0.92019 c 0,-0.0725 -0.27487,-0.34735 -0.610824,-0.61082 -0.5536,-0.43417 -0.565946,-0.42182 -0.131782,0.13178 0.455978,0.58142 0.742606,0.76632 0.742606,0.47904 z m -8.843933,-22.29418 c -0.09683,-0.23996 -0.176052,-0.0436 -0.176052,0.43631 0,0.47993 0.07922,0.67627 0.176052,0.4363 0.09683,-0.23997 0.09683,-0.63264 0,-0.87261 z m 2.899526,-13.001817 c 0,-0.191973 -0.152258,-0.113439 -0.338352,0.174521 -0.186094,0.28796 -0.338353,0.680632 -0.338353,0.872605 0,0.191974 0.152259,0.113439 0.338353,-0.174521 0.186094,-0.28796 0.338352,-0.680632 0.338352,-0.872605 z M 62.653073,77.487366 c 0.651237,-0.671906 1.105533,-1.221647 1.009547,-1.221647 -0.09599,0 -0.707352,0.549741 -1.358589,1.221647 -0.651237,0.671907 -1.105533,1.221648 -1.009547,1.221648 0.09599,0 0.707352,-0.549741 1.358589,-1.221648 z M 173.99753,77.181063 c 0,-0.07248 -0.27487,-0.347352 -0.61082,-0.610824 -0.5536,-0.434164 -0.56595,-0.421818 -0.13179,0.131782 0.45598,0.581417 0.74261,0.766315 0.74261,0.479042 z M 65.140891,75.305853 c 0.434163,-0.553601 0.421818,-0.565946 -0.131783,-0.131783 -0.335953,0.263472 -0.610824,0.538343 -0.610824,0.610824 0,0.287274 0.286629,0.102375 0.742607,-0.479041 z m 2.59683,-1.870554 c 0.130315,-0.210853 -0.175075,-0.11341 -0.678645,0.216542 -0.503569,0.329951 -0.915581,0.665907 -0.915581,0.74657 0,0.25249 1.3452,-0.560179 1.594226,-0.963112 z m 2.245238,-1.585032 c 0,-0.252489 -1.3452,0.560179 -1.594225,0.963112 -0.130315,0.210853 0.175075,0.11341 0.678644,-0.216542 0.50357,-0.329951 0.915581,-0.665907 0.915581,-0.74657 z m 97.557291,0.36479 c -0.89406,-0.689083 -1.91973,-1.25382 -1.91973,-1.057007 0,0.177416 2.18425,1.608015 2.44329,1.600266 0.096,-0.0029 -0.13961,-0.247338 -0.52356,-0.543259 z m -95.288516,-1.702214 0.698084,-0.568394 -0.698084,0.342721 c -0.383947,0.188497 -1.012223,0.598499 -1.396169,0.911117 l -0.698085,0.568394 0.698085,-0.342722 c 0.383946,-0.188497 1.012222,-0.598499 1.396169,-0.911116 z m 92.497316,-0.03162 c -2.05896,-1.555882 -14.26421,-7.119554 -14.68824,-6.695526 -0.0689,0.06889 1.87245,0.943735 4.31407,1.944106 2.44162,1.000372 5.85294,2.596139 7.5807,3.54615 3.25898,1.791956 3.98359,2.104598 2.79347,1.20527 z M 76.203729,68.479545 c 3.745907,-1.939255 9.432614,-4.20063 14.185598,-5.641042 3.942864,-1.194903 5.8026,-1.933895 3.502307,-1.391691 -5.337916,1.258204 -17.580644,6.13124 -20.136604,8.015077 -1.063137,0.78357 -0.615515,0.603997 2.448699,-0.982344 z m 21.353563,-7.58763 c 0.382362,-0.258747 0.241161,-0.291131 -0.523563,-0.120074 -1.283404,0.287077 -1.562002,0.486853 -0.668999,0.479719 0.36795,-0.0029 0.904603,-0.16478 1.192562,-0.359645 z M 138.22071,60.55882 c -0.11865,-0.191973 -0.55986,-0.333385 -0.98047,-0.31425 -0.7119,0.03239 -0.70445,0.0541 0.10786,0.31425 0.47994,0.153702 0.92115,0.295114 0.98047,0.31425 0.0593,0.01914 0.0108,-0.122277 -0.10786,-0.31425 z m -36.99847,-0.349042 c 0.46029,-0.197796 0.51974,-0.306513 0.17452,-0.319165 -0.28796,-0.01055 -0.75917,0.133071 -1.04713,0.319165 -0.638039,0.412331 -0.0869,0.412331 0.87261,0 z m 2.87232,-0.559922 c -0.11598,-0.115984 -0.41703,-0.128384 -0.669,-0.02756 -0.27844,0.111423 -0.19573,0.194131 0.21089,0.21088 0.36794,0.01516 0.5741,-0.06734 0.45811,-0.183324 z m 30.01763,0 c -0.11598,-0.115984 -0.41703,-0.128384 -0.669,-0.02756 -0.27844,0.111423 -0.19573,0.194131 0.21088,0.21088 0.36795,0.01516 0.5741,-0.06734 0.45812,-0.183324 z M 106.71965,59.28053 c -0.23997,-0.09683 -0.63264,-0.09683 -0.87261,0 -0.23996,0.09683 -0.0436,0.176052 0.43631,0.176052 0.47993,0 0.67627,-0.07922 0.4363,-0.176052 z m 8.7327,-0.346828 c -0.23632,-0.09561 -0.70752,-0.101431 -1.04713,-0.01293 -0.33961,0.0885 -0.14626,0.166724 0.42966,0.173837 0.57592,0.0071 0.85378,-0.06529 0.61747,-0.160904 z m 6.44285,-0.02578 c -0.72418,-0.07556 -1.82366,-0.07429 -2.44329,0.0028 -0.61964,0.07711 -0.0271,0.138928 1.31669,0.13738 1.34381,-0.0015 1.85078,-0.06464 1.1266,-0.140196 z m 5.77178,0.009 c -0.4293,-0.08285 -1.21465,-0.08499 -1.74521,-0.0048 -0.53057,0.08023 -0.17932,0.148014 0.78055,0.150635 0.95986,0.0026 1.39396,-0.06302 0.96466,-0.145871 z"
       id="path11678"
       transform="scale(0.26458333)" /><path
       style="fill:#ffffff;fill-opacity:1;stroke:#ffffff;stroke-width:0.349042;stroke-opacity:1"
       d="m 54.821846,179.89529 c 0.130868,-0.21175 1.945962,-2.57571 4.033542,-5.25326 4.150338,-5.32325 6.98391,-9.8722 8.798892,-14.12551 1.646888,-3.85939 2.748534,-7.31075 2.615919,-8.19543 -0.08057,-0.53749 -1.282109,-1.46087 -4.212926,-3.23766 -6.370108,-3.86182 -9.48897,-6.28586 -14.414901,-11.20353 -4.879288,-4.8711 -7.442817,-8.34878 -10.06696,-13.65679 -3.347639,-6.77148 -4.631066,-12.91082 -4.297556,-20.55758 0.496037,-11.373228 5.379926,-21.409484 14.9595,-30.741356 12.378152,-12.058086 28.974165,-19.568681 50.555574,-22.879132 6.75702,-1.036485 22.81925,-1.139034 29.66858,-0.189418 22.60078,3.133452 40.69502,11.414806 53.23949,24.366599 6.72108,6.939302 10.54758,13.569232 12.7629,22.113422 0.69911,2.696358 0.81625,4.006695 0.82684,9.249615 0.0133,6.55735 -0.30633,8.61455 -2.12445,13.67493 -2.47543,6.88991 -6.29247,12.73275 -12.1699,18.62876 -4.6435,4.65818 -7.95635,7.263 -13.44161,10.56882 -11.40474,6.87332 -24.68057,11.26347 -39.79135,13.15847 -5.6531,0.70893 -6.1787,0.86074 -12.00908,3.46835 -15.80113,7.06701 -33.087746,11.61698 -54.406727,14.32025 -7.552452,0.95766 -10.911253,1.11417 -10.525777,0.49045 z m 22.485655,-12.61682 c -0.0042,-0.61317 -0.07565,-0.67421 -0.326012,-0.27845 -0.176367,0.2788 -0.243226,0.6322 -0.148577,0.78535 0.302749,0.48985 0.480083,0.30045 0.474589,-0.5069 z"
       id="path11680"
       transform="scale(0.26458333)" /></g></svg>
